<svg xmlns="http://www.w3.org/2000/svg" width="33" height="33"><g data-name="Group 530"><g data-name="Ellipse 209" fill="#ffe119" stroke="#fff" stroke-width="2"><circle cx="16.5" cy="16.5" r="16.5" stroke="none"/><circle cx="16.5" cy="16.5" r="15.5" fill="none"/></g><path data-name="Path 665" d="M15.797 6.29l.066 8.51-2.785-2.785a.705.705 0 00-.997.997L16.07 17a.7.7 0 00.996.001l3.99-3.99a.705.705 0 10-.998-.996L17.273 14.8V7.24c-.052-1.991-1.478-1.145-1.476-.95z" fill="#fff" stroke="#fff"/><g data-name="Group 528"><path data-name="Path 673" d="M10.594 22.698s2.955-2.993 3.427-3.036 5.588 4.089 5.588 4.089 2.865-3.6 5.219-1.711c0 0 2.147-.55 2.269.659s-1.331 2.432-2.269 3.1-2.648 1.638-2.648 1.638c-1.279.883-5.479 1.469-7.316 1.2a10.222 10.222 0 01-3.565-1.2 17.713 17.713 0 01-6.082-5.393z" fill="#fff"/></g></g></svg>