<svg xmlns="http://www.w3.org/2000/svg" width="33" height="33"><g data-name="Group 531"><g data-name="Ellipse 213" fill="#ffe119" stroke="#fff" stroke-width="2"><circle cx="16.5" cy="16.5" r="16.5" stroke="none"/><circle cx="16.5" cy="16.5" r="15.5" fill="none"/></g><path d="M23.496 15.204l-6.58-6.307a.444.444 0 00-.615 0l-6.586 6.314a.751.751 0 00-.219.527.742.742 0 00.741.741h1.037v5.631a.889.889 0 00.889.889h2.519a.445.445 0 00.445-.445v-3.852a.149.149 0 01.148-.148h2.667a.149.149 0 01.148.148v3.852a.445.445 0 00.445.445h2.519a.889.889 0 00.889-.889v-5.631h1.037a.742.742 0 00.741-.741.757.757 0 00-.225-.534zm0 0" fill="#fff"/></g></svg>