<svg xmlns="http://www.w3.org/2000/svg" width="33" height="33"><g data-name="Group 532"><g data-name="Ellipse 223" fill="#911eb4" stroke="#fff" stroke-width="2"><circle cx="16.5" cy="16.5" r="16.5" stroke="none"/><circle cx="16.5" cy="16.5" r="15.5" fill="none"/></g><path data-name="Path 666" d="M15.525 10.98l6.479 6.385h-3.939a.705.705 0 000 1.41h5.641a.7.7 0 00.705-.704v-5.642a.705.705 0 10-1.41 0v3.939l-5.76-5.759c-1.448-1.372-1.854.233-1.716.371z" fill="#fff" stroke="#fff"/><path data-name="Path 674" d="M7.985 26.093c-1.973-1.924-2.979-3.115-3.577-5.96a20.632 20.632 0 01-.203-5.944A20.3 20.3 0 016.26 9.915C7.367 8.39 9.57 5.862 9.57 5.862l2.424 1.578-4.442 8.056 15.723 11.805a15.474 15.474 0 01-3.194 1.567 13.756 13.756 0 01-5.034.303c-2.22-.332-5.433-1.487-7.064-3.078z" fill="#fff"/></g></svg>